<svg xmlns="http://www.w3.org/2000/svg" viewBox="0 0 64 64">
  <title>Design System Starter</title>
  <defs>
    <linearGradient id="starter-logo-gradient" x1="0" y1="0" x2="1" y2="1">
      <stop offset="0%" stop-color="#4f8cff" />
      <stop offset="100%" stop-color="#1fb6a6" />
    </linearGradient>
  </defs>
  <rect x="4" y="4" width="56" height="56" rx="14" fill="#0f1115" />
  <path
    d="M18 32c0-7.732 6.268-14 14-14h14v8H32a6 6 0 0 0 0 12h6v8h-6c-7.732 0-14-6.268-14-14Z"
    fill="url(#starter-logo-gradient)"
  />
  <path
    d="M30 18h4c6.627 0 12 5.373 12 12s-5.373 12-12 12h-4v-8h4a4 4 0 0 0 0-8h-4v-8Z"
    fill="#ffffff"
    fill-opacity=".94"
  />
</svg>
